# xmcd CD database file
#
# Track frame offsets:
#	150
#	2675
#	18595
#	33095
#	50250
#	64125
#	80625
#	95925
#	113475
#	130810
#	146647
#	163275
#	179175
#	198375
#
# Disc length: 3115 seconds
#
# Revision: 1
# Processed by: cddbd v1.5PL3 Copyright (c) Steve Scherf et al.
# Submitted via: CDex 1.40Release
#
DISCID=c50c290e
DTITLE=Famara - Famasound
DYEAR=2004
DGENRE=Reggae
TTITLE0=Welcome Talk
TTITLE1=Under The Moonlight
TTITLE2=Bailando
TTITLE3=One Shirt
TTITLE4=We Rock Feat. Manu
TTITLE5=Guatuba (Natural Viagra)
TTITLE6=Radio Hifi Song
TTITLE7=Rootsaba Family
TTITLE8=Maroon Man
TTITLE9=Famasound
TTITLE10=Moussoulu Reggae
TTITLE11=Oniowoma (Mother Is God)
TTITLE12=Zion General
TTITLE13=Mambo Saana
EXTD=YEAR: 2004 ID3G: 16
EXTT0=
EXTT1=
EXTT2=
EXTT3=
EXTT4=
EXTT5=
EXTT6=
EXTT7=
EXTT8=
EXTT9=
EXTT10=
EXTT11=
EXTT12=
EXTT13=
PLAYORDER=
